<svg width="82" height="18" viewBox="0 0 82 18" fill="none" xmlns="http://www.w3.org/2000/svg">
<path d="M25.0318 3.90774C25.1781 3.90774 25.3048 3.92236 25.4121 3.95162C25.5291 3.98087 25.6218 4.054 25.69 4.17101C25.7583 4.27828 25.7924 4.45379 25.7924 4.69757C25.7924 4.94134 25.7583 5.12174 25.69 5.23875C25.6218 5.34601 25.5291 5.41426 25.4121 5.44352C25.2951 5.46302 25.1635 5.47277 25.0172 5.47277H22.3259V13.2687C22.3259 13.4344 22.3064 13.5856 22.2674 13.7221C22.2382 13.8489 22.1602 13.9512 22.0334 14.0293C21.9164 14.1073 21.7165 14.1463 21.4337 14.1463C21.1704 14.1463 20.9754 14.1024 20.8487 14.0146C20.7219 13.9366 20.6439 13.8342 20.6146 13.7075C20.5854 13.571 20.5708 13.4198 20.5708 13.2541V5.47277H17.8502C17.7137 5.47277 17.587 5.45814 17.4699 5.42889C17.3529 5.39964 17.2554 5.33138 17.1774 5.22412C17.1092 5.11686 17.075 4.94134 17.075 4.69757C17.075 4.45379 17.1092 4.27828 17.1774 4.17101C17.2457 4.054 17.3383 3.98087 17.4553 3.95162C17.5821 3.92236 17.7137 3.90774 17.8502 3.90774H25.0318ZM28.7196 14.234C28.0858 14.234 27.53 14.1316 27.0522 13.9269C26.5842 13.7221 26.1893 13.4442 25.8675 13.0932C25.5554 12.7324 25.3165 12.3326 25.1508 11.8938C24.9948 11.4452 24.9168 10.9821 24.9168 10.5043C24.9168 9.8022 25.0776 9.17814 25.3994 8.63209C25.7212 8.08603 26.1649 7.65699 26.7304 7.34496C27.3057 7.03293 27.9639 6.87691 28.705 6.87691C29.2316 6.87691 29.6947 6.95979 30.0945 7.12556C30.4943 7.29133 30.8258 7.51072 31.0891 7.78375C31.3621 8.04703 31.5669 8.33956 31.7034 8.66134C31.8497 8.98312 31.9228 9.29515 31.9228 9.59743C31.9228 10.1142 31.7961 10.4896 31.5425 10.7237C31.2988 10.9577 30.9916 11.0747 30.6211 11.0747H26.7597C26.7694 11.4062 26.8718 11.6939 27.0668 11.9377C27.2716 12.1814 27.5251 12.3716 27.8274 12.5081C28.1395 12.6349 28.4564 12.6982 28.7781 12.6982C29.0219 12.6982 29.2364 12.6836 29.4217 12.6544C29.6167 12.6251 29.7825 12.591 29.919 12.552C30.0555 12.5032 30.1725 12.4545 30.27 12.4057C30.3773 12.357 30.4748 12.3131 30.5626 12.2741C30.6503 12.2351 30.7332 12.2107 30.8112 12.2009C30.9185 12.1912 31.0257 12.2156 31.133 12.2741C31.2403 12.3326 31.328 12.435 31.3963 12.5812C31.4548 12.6787 31.4938 12.7714 31.5133 12.8591C31.5425 12.9371 31.5572 13.0152 31.5572 13.0932C31.5572 13.2882 31.4402 13.4734 31.2061 13.649C30.9721 13.8147 30.6406 13.9512 30.2115 14.0585C29.7922 14.1755 29.2949 14.234 28.7196 14.234ZM26.7597 10.0362H29.7581C29.9239 10.0362 30.0506 10.0118 30.1384 9.9631C30.2262 9.90459 30.27 9.78758 30.27 9.61206C30.27 9.38779 30.2018 9.18789 30.0653 9.01237C29.9288 8.82711 29.7435 8.68572 29.5095 8.58821C29.2754 8.48095 29.0024 8.42732 28.6904 8.42732C28.3296 8.42732 28.0029 8.50045 27.7104 8.64671C27.4179 8.78323 27.1839 8.97337 27.0083 9.21715C26.8426 9.46092 26.7597 9.73395 26.7597 10.0362ZM39.12 14.117C38.8372 14.117 38.6275 14.0634 38.491 13.9561C38.3545 13.8489 38.2863 13.7026 38.2863 13.5173L38.3886 13.0347C38.3106 13.1614 38.179 13.3126 37.9937 13.4881C37.8085 13.6538 37.5647 13.805 37.2624 13.9415C36.9601 14.0683 36.5945 14.1316 36.1654 14.1316C35.7071 14.1316 35.2732 14.039 34.8637 13.8537C34.4639 13.6587 34.108 13.3954 33.7959 13.0639C33.4937 12.7226 33.2499 12.3375 33.0646 11.9084C32.8891 11.4696 32.8013 11.0016 32.8013 10.5043C32.8013 10.0265 32.8891 9.57793 33.0646 9.15864C33.2499 8.7296 33.4985 8.34931 33.8106 8.01778C34.1226 7.68624 34.4785 7.42784 34.8783 7.24257C35.2878 7.04755 35.7169 6.95004 36.1654 6.95004C36.5652 6.95004 36.9016 7.00367 37.1746 7.11093C37.4574 7.2182 37.6963 7.35471 37.8913 7.52048C38.0864 7.67649 38.2473 7.84226 38.374 8.01778L38.2863 7.59361C38.2863 7.37909 38.3545 7.2182 38.491 7.11093C38.6275 6.99392 38.8421 6.93542 39.1346 6.93542C39.4076 6.93542 39.6026 6.9793 39.7196 7.06705C39.8367 7.14506 39.9098 7.2572 39.939 7.40346C39.9683 7.53998 39.9829 7.69599 39.9829 7.87151V13.2248C39.9829 13.3906 39.9683 13.5417 39.939 13.6782C39.9098 13.8147 39.8318 13.922 39.705 14C39.588 14.078 39.393 14.117 39.12 14.117ZM36.4287 12.4203C36.7602 12.4203 37.0576 12.3375 37.3209 12.1717C37.5842 12.0059 37.7938 11.7817 37.9498 11.4989C38.1156 11.2063 38.1985 10.8846 38.1985 10.5335C38.1985 10.1532 38.1156 9.82171 37.9498 9.53893C37.7841 9.25615 37.5647 9.03675 37.2917 8.88074C37.0284 8.71497 36.731 8.63209 36.3994 8.63209C36.0387 8.63209 35.7169 8.71985 35.4341 8.89536C35.1513 9.06113 34.927 9.29028 34.7613 9.58281C34.6053 9.86559 34.5273 10.1874 34.5273 10.5482C34.5273 10.8992 34.6101 11.2161 34.7759 11.4989C34.9417 11.7817 35.1659 12.0059 35.4487 12.1717C35.7413 12.3375 36.0679 12.4203 36.4287 12.4203ZM42.2988 14.1316C42.0355 14.1316 41.8405 14.0926 41.7138 14.0146C41.5968 13.9366 41.5236 13.8294 41.4944 13.6928C41.4651 13.5563 41.4505 13.4101 41.4505 13.2541V7.78375C41.4505 7.62774 41.4651 7.48635 41.4944 7.35958C41.5236 7.23282 41.6016 7.13044 41.7284 7.05243C41.8552 6.97442 42.055 6.93542 42.3281 6.93542C42.6109 6.93542 42.8156 6.99392 42.9424 7.11093C43.0789 7.22795 43.1472 7.41321 43.1472 7.66674L43.0155 8.07628C43.0643 7.96902 43.1472 7.85201 43.2642 7.72525C43.3812 7.59848 43.5226 7.47172 43.6883 7.34496C43.8639 7.2182 44.0589 7.11581 44.2734 7.0378C44.4879 6.95979 44.7122 6.92079 44.9462 6.92079C45.268 6.92079 45.5605 6.97442 45.8238 7.08168C46.0968 7.18894 46.3357 7.34496 46.5405 7.54973C46.755 7.7545 46.9403 8.00315 47.0963 8.29568C47.2621 8.04215 47.4473 7.813 47.6521 7.60823C47.8569 7.39371 48.0958 7.22795 48.3688 7.11093C48.6418 6.98417 48.949 6.92079 49.2903 6.92079C49.8558 6.92079 50.3288 7.06218 50.709 7.34496C51.0991 7.62774 51.3916 8.0324 51.5866 8.55895C51.7914 9.07576 51.8938 9.69494 51.8938 10.4165V13.2541C51.8938 13.4198 51.8743 13.571 51.8353 13.7075C51.806 13.8342 51.728 13.9366 51.6013 14.0146C51.4842 14.0926 51.2892 14.1316 51.0162 14.1316C50.7432 14.1316 50.5433 14.0878 50.4165 14C50.2897 13.922 50.2117 13.8196 50.1825 13.6928C50.1532 13.5563 50.1386 13.4052 50.1386 13.2394V10.4019C50.1386 10.0411 50.0947 9.72907 50.007 9.4658C49.9192 9.20252 49.7876 8.99775 49.6121 8.85148C49.4463 8.70522 49.2269 8.63209 48.9539 8.63209C48.6613 8.63209 48.4078 8.70522 48.1933 8.85148C47.9885 8.988 47.8276 9.18789 47.7106 9.45117C47.5936 9.71445 47.5351 10.0362 47.5351 10.4165V13.2687C47.5351 13.4344 47.5107 13.5905 47.462 13.7367C47.4132 13.8732 47.3157 13.9756 47.1694 14.0439C47.0329 14.1219 46.833 14.1511 46.5698 14.1316C46.326 14.1219 46.1456 14.0731 46.0286 13.9854C45.9213 13.8976 45.8531 13.7904 45.8238 13.6636C45.8043 13.5271 45.7945 13.3857 45.7945 13.2394V10.4019C45.7945 10.0411 45.7507 9.72907 45.6629 9.4658C45.5752 9.19277 45.4435 8.988 45.268 8.85148C45.1022 8.70522 44.878 8.63209 44.5952 8.63209C44.2929 8.63209 44.0345 8.71009 43.82 8.86611C43.6152 9.02213 43.4592 9.23177 43.3519 9.49505C43.2447 9.75832 43.191 10.0606 43.191 10.4019V13.2687C43.191 13.4247 43.1715 13.571 43.1325 13.7075C43.1033 13.844 43.0253 13.9464 42.8985 14.0146C42.7815 14.0926 42.5816 14.1316 42.2988 14.1316ZM55.553 14.1316C55.358 14.1316 55.202 14.0926 55.085 14.0146C54.9777 13.9464 54.8948 13.8586 54.8363 13.7514C54.7876 13.6441 54.7437 13.5466 54.7047 13.4588L52.5546 8.01778C52.4961 7.83251 52.4668 7.67649 52.4668 7.54973C52.4766 7.42297 52.5253 7.3157 52.6131 7.22795C52.7106 7.13044 52.852 7.04755 53.0373 6.9793C53.3493 6.85253 53.5931 6.8184 53.7686 6.87691C53.9539 6.93542 54.0904 7.10118 54.1781 7.37421L55.5677 11.0601L56.8255 7.5351C56.8548 7.44734 56.8987 7.35471 56.9572 7.2572C57.0157 7.15969 57.0986 7.07681 57.2058 7.00855C57.3228 6.93054 57.4788 6.89154 57.6739 6.89154C57.8786 6.89154 58.0395 6.93054 58.1565 7.00855C58.2736 7.07681 58.3613 7.15969 58.4198 7.2572C58.4881 7.35471 58.532 7.44734 58.5515 7.5351L59.8093 11.0893L61.1403 7.50585C61.2573 7.20357 61.4036 7.00367 61.5791 6.90616C61.7546 6.80865 61.9935 6.8184 62.2958 6.93542C62.5689 7.05243 62.7541 7.19869 62.8516 7.37421C62.9491 7.53998 62.9394 7.75937 62.8224 8.0324L60.6577 13.4588C60.6187 13.5563 60.5699 13.6587 60.5114 13.766C60.4626 13.8635 60.3798 13.9464 60.2627 14.0146C60.1555 14.0926 60.0092 14.1316 59.824 14.1316C59.6289 14.1316 59.4729 14.0975 59.3559 14.0293C59.2486 13.9707 59.1658 13.8879 59.1073 13.7806C59.0488 13.6733 59 13.5612 58.961 13.4442L57.6885 9.83146L56.416 13.4442C56.3575 13.5807 56.3039 13.7026 56.2551 13.8099C56.2063 13.9171 56.1283 13.9951 56.0211 14.0439C55.9138 14.1024 55.7578 14.1316 55.553 14.1316ZM64.8976 14.1463C64.6343 14.1463 64.4393 14.1024 64.3126 14.0146C64.1858 13.9366 64.1078 13.8342 64.0785 13.7075C64.0493 13.571 64.0347 13.4198 64.0347 13.2541V7.813C64.0347 7.65699 64.0493 7.5156 64.0785 7.38884C64.1175 7.25232 64.1956 7.14506 64.3126 7.06705C64.4393 6.98905 64.6392 6.95004 64.9123 6.95004C65.1853 6.95004 65.3803 6.98905 65.4973 7.06705C65.6241 7.14506 65.7021 7.25232 65.7313 7.38884C65.7606 7.52535 65.7752 7.67649 65.7752 7.84226V13.2687C65.7752 13.4344 65.7606 13.5856 65.7313 13.7221C65.7021 13.8489 65.6241 13.9512 65.4973 14.0293C65.3803 14.1073 65.1804 14.1463 64.8976 14.1463ZM64.8976 5.53128C64.6148 5.53128 64.4052 5.49227 64.2687 5.41426C64.1419 5.32651 64.059 5.20949 64.02 5.06323C63.9908 4.91696 63.9762 4.75607 63.9762 4.58056C63.9762 4.39529 63.9908 4.2344 64.02 4.09788C64.059 3.96137 64.1468 3.85411 64.2833 3.7761C64.4198 3.68834 64.6295 3.64446 64.9123 3.64446C65.2048 3.64446 65.4144 3.68834 65.5412 3.7761C65.668 3.86386 65.7508 3.98087 65.7898 4.12714C65.8288 4.26365 65.8483 4.42454 65.8483 4.60981C65.8483 4.77558 65.8288 4.93159 65.7898 5.07786C65.7508 5.22412 65.668 5.33626 65.5412 5.41426C65.4144 5.49227 65.1999 5.53128 64.8976 5.53128ZM69.8765 14.234C69.6229 14.234 69.3548 14.2048 69.072 14.1463C68.7892 14.0975 68.5162 14.0244 68.2529 13.9269C67.9896 13.8196 67.7605 13.6977 67.5655 13.5612C67.3802 13.4149 67.2632 13.2541 67.2144 13.0785C67.1754 12.981 67.1608 12.8884 67.1706 12.8006C67.1803 12.7031 67.2096 12.6056 67.2583 12.5081C67.3071 12.4008 67.3802 12.2936 67.4777 12.1863C67.5655 12.0791 67.6532 12.0206 67.741 12.0108C67.8385 11.9913 67.9604 12.0206 68.1066 12.0986C68.2334 12.1473 68.3699 12.2107 68.5162 12.2887C68.6722 12.3667 68.8282 12.4447 68.9842 12.5227C69.15 12.6007 69.3158 12.6641 69.4815 12.7129C69.6571 12.7616 69.8277 12.786 69.9935 12.786C70.3542 12.786 70.6419 12.7275 70.8564 12.6105C71.0709 12.4837 71.1782 12.3082 71.1782 12.0839C71.1782 11.9572 71.1441 11.845 71.0758 11.7475C71.0076 11.65 70.9149 11.572 70.7979 11.5135C70.6907 11.4452 70.559 11.3867 70.403 11.338C70.2567 11.2795 70.0958 11.2307 69.9203 11.1917C69.7546 11.143 69.579 11.0893 69.3938 11.0308C69.15 10.9626 68.9062 10.8797 68.6625 10.7822C68.4187 10.6847 68.1993 10.5579 68.0043 10.4019C67.819 10.2459 67.6679 10.0509 67.5508 9.81683C67.4338 9.58281 67.3753 9.29028 67.3753 8.93924C67.3753 8.50045 67.4777 8.12991 67.6825 7.82763C67.897 7.5156 68.2042 7.2767 68.6039 7.11093C69.0037 6.94517 69.4864 6.86228 70.052 6.86228C70.247 6.86228 70.4323 6.87691 70.6078 6.90616C70.793 6.93542 70.9686 6.9793 71.1343 7.0378C71.3098 7.08656 71.4756 7.14994 71.6316 7.22795C71.7974 7.30595 71.9534 7.39371 72.0997 7.49122C72.3434 7.62774 72.4702 7.78863 72.48 7.9739C72.4897 8.14941 72.4215 8.33956 72.2752 8.54433C72.1679 8.68084 72.0607 8.77835 71.9534 8.83686C71.8461 8.88561 71.734 8.88561 71.617 8.83686C71.461 8.75885 71.2903 8.67597 71.1051 8.58821C70.9296 8.4907 70.7443 8.40781 70.5493 8.33956C70.364 8.2713 70.169 8.23717 69.9642 8.23717C69.7692 8.23717 69.5937 8.26643 69.4377 8.32493C69.2816 8.38344 69.1646 8.46632 69.0866 8.57358C69.0086 8.68084 68.9696 8.8076 68.9696 8.95387C68.9696 9.09038 69.0086 9.20252 69.0866 9.29028C69.1646 9.37804 69.267 9.45117 69.3938 9.50967C69.5205 9.56818 69.6717 9.62181 69.8472 9.67057C70.0227 9.70957 70.208 9.74857 70.403 9.78758C70.676 9.84608 70.9539 9.91922 71.2367 10.007C71.5195 10.0947 71.7779 10.2166 72.0119 10.3726C72.2557 10.5287 72.4507 10.7383 72.597 11.0016C72.7432 11.2551 72.8164 11.5866 72.8164 11.9962C72.8164 12.708 72.5531 13.2589 72.0265 13.649C71.5097 14.039 70.793 14.234 69.8765 14.234ZM77.5697 14.234C76.9359 14.234 76.3801 14.1316 75.9023 13.9269C75.4343 13.7221 75.0394 13.4442 74.7176 13.0932C74.4056 12.7324 74.1667 12.3326 74.0009 11.8938C73.8449 11.4452 73.7669 10.9821 73.7669 10.5043C73.7669 9.8022 73.9278 9.17814 74.2495 8.63209C74.5713 8.08603 75.015 7.65699 75.5805 7.34496C76.1559 7.03293 76.814 6.87691 77.5551 6.87691C78.0817 6.87691 78.5448 6.95979 78.9446 7.12556C79.3444 7.29133 79.676 7.51072 79.9392 7.78375C80.2123 8.04703 80.417 8.33956 80.5535 8.66134C80.6998 8.98312 80.7729 9.29515 80.7729 9.59743C80.7729 10.1142 80.6462 10.4896 80.3927 10.7237C80.1489 10.9577 79.8417 11.0747 79.4712 11.0747H75.6098C75.6195 11.4062 75.7219 11.6939 75.917 11.9377C76.1217 12.1814 76.3752 12.3716 76.6775 12.5081C76.9896 12.6349 77.3065 12.6982 77.6282 12.6982C77.872 12.6982 78.0865 12.6836 78.2718 12.6544C78.4668 12.6251 78.6326 12.591 78.7691 12.552C78.9056 12.5032 79.0226 12.4545 79.1201 12.4057C79.2274 12.357 79.3249 12.3131 79.4127 12.2741C79.5004 12.2351 79.5833 12.2107 79.6613 12.2009C79.7686 12.1912 79.8758 12.2156 79.9831 12.2741C80.0904 12.3326 80.1781 12.435 80.2464 12.5812C80.3049 12.6787 80.3439 12.7714 80.3634 12.8591C80.3927 12.9371 80.4073 13.0152 80.4073 13.0932C80.4073 13.2882 80.2903 13.4734 80.0562 13.649C79.8222 13.8147 79.4907 13.9512 79.0616 14.0585C78.6424 14.1755 78.1451 14.234 77.5697 14.234ZM75.6098 10.0362H78.6082C78.774 10.0362 78.9008 10.0118 78.9885 9.9631C79.0763 9.90459 79.1201 9.78758 79.1201 9.61206C79.1201 9.38779 79.0519 9.18789 78.9154 9.01237C78.7789 8.82711 78.5936 8.68572 78.3596 8.58821C78.1255 8.48095 77.8525 8.42732 77.5405 8.42732C77.1797 8.42732 76.853 8.50045 76.5605 8.64671C76.268 8.78323 76.034 8.97337 75.8584 9.21715C75.6927 9.46092 75.6098 9.73395 75.6098 10.0362Z" fill="white"/>
<circle cx="2.89777" cy="3.80756" r="2.05646" fill="url(#paint0_linear_9267_7205)"/>
<circle cx="13.8343" cy="3.80756" r="2.05646" fill="url(#paint1_linear_9267_7205)"/>
<path d="M5.98242 7.45312H0C1.91625 12.7345 5.84221 12.0334 7.99214 11.4258C6.30959 10.3415 5.95127 8.32556 5.98242 7.45312Z" fill="url(#paint2_linear_9267_7205)"/>
<path d="M16.8723 7.45312H10.8899C9.20732 14.7068 3.61438 12.8747 1.02823 11.0519C4.84202 17.1091 10.5939 15.6322 12.9931 14.1366L16.5919 15.3985L15.0028 12.3606C16.3488 10.865 16.81 8.46577 16.8723 7.45312Z" fill="url(#paint3_linear_9267_7205)"/>
<defs>
<linearGradient id="paint0_linear_9267_7205" x1="2.89777" y1="1.7511" x2="5.74671" y2="3.93808" gradientUnits="userSpaceOnUse">
<stop stop-color="#0f98a0"/>
<stop offset="1" stop-color="#7392FF"/>
</linearGradient>
<linearGradient id="paint1_linear_9267_7205" x1="13.8343" y1="1.7511" x2="16.6832" y2="3.93808" gradientUnits="userSpaceOnUse">
<stop stop-color="#0f98a0"/>
<stop offset="1" stop-color="#7392FF"/>
</linearGradient>
<linearGradient id="paint2_linear_9267_7205" x1="8.43615" y1="7.45312" x2="13.5718" y2="15.7607" gradientUnits="userSpaceOnUse">
<stop stop-color="#0f98a0"/>
<stop offset="1" stop-color="#7392FF"/>
</linearGradient>
<linearGradient id="paint3_linear_9267_7205" x1="8.43615" y1="7.45312" x2="13.5718" y2="15.7607" gradientUnits="userSpaceOnUse">
<stop stop-color="#0f98a0"/>
<stop offset="1" stop-color="#7392FF"/>
</linearGradient>
</defs>
</svg>
